<?xml version="1.0" encoding="UTF-8"?> <svg xmlns="http://www.w3.org/2000/svg" width="300" height="73" viewBox="0 0 300 73" fill="none"> <path d="M164.424 29.3644H179.387L198.015 4.47266H183.052L164.424 29.3644Z" fill="#9C78FF"></path> <path d="M203.703 57.9715H217.48L260.298 0.753906H246.521L203.703 57.9715Z" fill="#9C78FF"></path> <path d="M284.609 29.3652L265.986 54.257H280.95L299.577 29.3652H284.609Z" fill="#9C78FF"></path> <path d="M9.7561 12.1445H0.417969V49.1464H9.7561V12.1445Z" fill="#9C78FF"></path> <path d="M46.0972 12.2109H36.7591V28.9584C36.8026 28.9584 36.8123 29.2869 36.7929 29.939C36.7687 30.5911 36.7591 31.3447 36.7591 32.1997L25.4555 12.2109H16.5918V49.1452H25.9299V30.2385L28.2294 34.5618L36.6187 49.1452H46.0923V12.2109H46.0972Z" fill="#9C78FF"></path> <path d="M73.0276 28.9584C73.0712 28.9584 73.0857 29.2869 73.0615 29.939C73.0373 30.5911 73.0276 31.3447 73.0276 32.1997L61.729 12.2109H52.8652V49.1452H62.2034V30.2385L64.5028 34.5618L72.8921 49.1452H82.3658V12.2109H73.0276V28.9584Z" fill="#9C78FF"></path> <path d="M115.051 14.8098C113.608 13.7519 111.963 12.9645 110.113 12.4477C108.264 11.9308 106.366 11.6699 104.43 11.6699C102.537 11.6699 100.664 11.9308 98.8146 12.4477C96.9654 12.9645 95.3292 13.7519 93.906 14.8098C92.4876 15.8677 91.3354 17.196 90.4544 18.795C89.5733 20.3939 89.1328 22.2488 89.1328 24.3646V36.9916C89.1328 39.1073 89.5733 40.9526 90.4544 42.5273C91.3354 44.1021 92.4973 45.4208 93.9399 46.4787C95.3824 47.5366 97.0284 48.324 98.8776 48.8409C100.727 49.3577 102.6 49.6186 104.493 49.6186C106.434 49.6186 108.317 49.3577 110.142 48.8409C111.967 48.324 113.604 47.5366 115.051 46.4787C116.494 45.4208 117.656 44.1021 118.537 42.5273C119.418 40.9526 119.858 39.1073 119.858 36.9916V24.3646C119.858 22.2488 119.418 20.3939 118.537 18.795C117.656 17.196 116.494 15.8677 115.051 14.8098ZM110.447 36.9916C110.447 38.2958 109.828 39.2861 108.588 39.9623C107.349 40.6386 105.984 40.9768 104.493 40.9768C103.772 40.9768 103.05 40.8995 102.329 40.74C101.608 40.5855 100.954 40.3343 100.369 39.9962C99.7828 39.658 99.3181 39.2426 98.9792 38.7451C98.6404 38.2523 98.4709 37.663 98.4709 36.9916V24.3646C98.4709 23.6883 98.6404 23.0796 98.9792 22.5434C99.3181 22.0024 99.7683 21.5629 100.335 21.2296C100.896 20.8914 101.53 20.6354 102.232 20.4518C102.929 20.2731 103.641 20.1813 104.362 20.1813C105.127 20.1813 105.873 20.2586 106.594 20.418C107.315 20.5774 107.969 20.8238 108.555 21.1619C109.14 21.5001 109.605 21.9396 109.939 22.4806C110.278 23.0217 110.447 23.6497 110.447 24.3694V36.9916Z" fill="#9C78FF"></path> <path d="M151.591 16.2638C150.463 15.0465 149.054 14.0707 147.36 13.3268C145.67 12.5829 143.695 12.2109 141.439 12.2109H126.621V49.1452H135.959V38.3441H141.439C143.695 38.3441 145.67 37.9722 147.36 37.2283C149.049 36.4844 150.463 35.4941 151.591 34.2575C152.718 33.0209 153.561 31.6152 154.127 30.0356C154.689 28.4608 154.974 26.862 154.974 25.2437C154.974 23.6207 154.694 22.0266 154.127 20.447C153.566 18.8723 152.718 17.4762 151.591 16.2638ZM144.586 28.6203C143.884 29.567 142.838 30.0404 141.439 30.0404H135.959V20.9252H141.439C142.838 20.9252 143.884 21.3986 144.586 22.3406C145.283 23.2874 145.636 24.3307 145.636 25.4804C145.636 26.6301 145.288 27.6735 144.586 28.6203Z" fill="white"></path> <path d="M188.4 32.4374C189.664 30.481 190.298 27.7904 190.298 24.3704C190.249 22.2112 189.867 20.3514 189.146 18.8008C188.424 17.2454 187.456 15.9894 186.236 15.0185C185.021 14.0524 183.574 13.3423 181.909 12.8931C180.238 12.4438 178.457 12.2168 176.564 12.2168H161.746V49.151H171.22V38.4369L183.056 54.2569H198.019L184.329 35.9637C186.018 35.186 187.384 34.017 188.4 32.4374ZM176.695 20.9214C178.186 20.9214 179.29 21.361 180.011 22.2353C180.732 23.1145 181.095 24.0806 181.095 25.1385C181.095 26.1963 180.732 27.1625 180.011 28.0416C179.29 28.9208 178.186 29.3555 176.695 29.3555H171.215V20.9166H176.695V20.9214Z" fill="white"></path> <path d="M222.979 14.8098C221.536 13.7519 219.89 12.9645 218.041 12.4477C216.192 11.9308 214.294 11.6699 212.358 11.6699C210.465 11.6699 208.592 11.9308 206.742 12.4477C204.893 12.9645 203.257 13.7519 201.834 14.8098C200.415 15.8677 199.263 17.196 198.382 18.795C197.501 20.3939 197.061 22.2488 197.061 24.3646V36.9916C197.061 39.1073 197.501 40.9526 198.382 42.5273C199.263 44.1021 200.425 45.4208 201.868 46.4787C203.31 47.5366 204.956 48.324 206.805 48.8409C208.655 49.3577 210.528 49.6186 212.421 49.6186C214.362 49.6186 216.245 49.3577 218.07 48.8409C219.895 48.324 221.531 47.5366 222.979 46.4787C224.421 45.4208 225.583 44.1021 226.464 42.5273C227.345 40.9526 227.786 39.1073 227.786 36.9916V24.3646C227.786 22.2488 227.345 20.3939 226.464 18.795C225.583 17.196 224.421 15.8677 222.979 14.8098ZM218.38 36.9916C218.38 38.2958 217.76 39.2861 216.521 39.9623C215.282 40.6386 213.917 40.9768 212.426 40.9768C211.704 40.9768 210.983 40.8995 210.262 40.74C209.54 40.5855 208.887 40.3343 208.301 39.9962C207.715 39.658 207.251 39.2426 206.912 38.7451C206.573 38.2523 206.404 37.663 206.404 36.9916V24.3646C206.404 23.6883 206.573 23.0796 206.912 22.5434C207.251 22.0024 207.701 21.5629 208.267 21.2296C208.829 20.8914 209.463 20.6354 210.165 20.4518C210.862 20.2731 211.574 20.1813 212.295 20.1813C213.06 20.1813 213.805 20.2586 214.527 20.418C215.248 20.5774 215.901 20.8238 216.487 21.1619C217.073 21.5001 217.538 21.9396 217.872 22.4806C218.211 23.0217 218.38 23.6497 218.38 24.3694V36.9916Z" fill="white"></path> <path d="M248.457 35.5086H254.716V36.8611C254.716 38.3006 254.15 39.3827 253.027 40.1024C251.899 40.8222 250.659 41.1845 249.304 41.1845C247.949 41.1845 246.709 40.8222 245.581 40.1024C244.453 39.3827 243.892 38.3006 243.892 36.8611V24.1665C243.892 22.814 244.419 21.7706 245.48 21.0267C246.54 20.2828 247.721 19.9108 249.033 19.9108C250.069 19.9108 251.076 20.1717 252.044 20.6885C253.012 21.2054 253.748 22.0266 254.242 23.1521L262.026 19.5051C261.397 18.0221 260.593 16.7806 259.625 15.7904C258.657 14.8001 257.596 14.0031 256.444 13.3944C255.292 12.7858 254.096 12.3462 252.857 12.0757C251.618 11.8052 250.388 11.6699 249.168 11.6699C247.363 11.6699 245.581 11.9308 243.824 12.4477C242.067 12.9645 240.498 13.7519 239.119 14.8098C237.744 15.8677 236.64 17.1719 235.803 18.7273C234.97 20.2779 234.549 22.0942 234.549 24.1617V36.8563C234.549 38.9721 234.965 40.8318 235.803 42.4259C236.635 44.0248 237.744 45.3532 239.119 46.4111C240.493 47.469 242.062 48.266 243.824 48.807C245.581 49.3481 247.363 49.6186 249.168 49.6186C251.018 49.6186 252.823 49.3481 254.581 48.807C256.338 48.266 257.897 47.469 259.247 46.4111C260.603 45.3532 261.682 44.0248 262.495 42.4259C263.309 40.827 263.715 38.9721 263.715 36.8563V27.6735H254.353L248.457 35.5086Z" fill="white"></path> <path d="M280.95 4.47266H265.986L284.609 29.3644H299.577L280.95 4.47266Z" fill="white"></path> <path d="M0.698743 57.9892H0.417969V72.0219H0.698743V72.0267H9.61571V70.4133H2.19458V65.7422H9.10258V64.1288H2.19458V59.5929H9.61571V57.9844H0.698743V57.9892Z" fill="white"></path> <path d="M30.2629 59.9552C29.5852 59.3273 28.7622 58.8345 27.8085 58.4916C26.8694 58.1534 25.8044 57.9844 24.6523 57.9844H19.4531V72.0219H24.6523C25.8093 72.0219 26.8694 71.8528 27.8085 71.5147C28.7574 71.1717 29.5852 70.6838 30.258 70.0655C30.9358 69.4424 31.4634 68.6888 31.8168 67.8193C32.1654 66.9692 32.3445 66.0224 32.3445 65.0031C32.3445 63.9984 32.1654 63.0565 31.8168 62.2014C31.4634 61.3416 30.9406 60.5832 30.2629 59.9552ZM30.1564 67.259C29.8853 67.9111 29.498 68.4763 28.9946 68.9352C28.4911 69.3941 27.8715 69.7612 27.1502 70.0172C26.4192 70.2781 25.5769 70.4133 24.6426 70.4133H21.2201V59.5929H24.6426C25.572 59.5929 26.4144 59.7234 27.1502 59.9891C27.8715 60.2451 28.4863 60.6122 28.9897 61.0808C29.4932 61.5493 29.8853 62.1145 30.1515 62.7714C30.4275 63.4429 30.5679 64.1916 30.5679 65.008C30.5727 65.8292 30.4323 66.5876 30.1564 67.259Z" fill="white"></path> <path d="M51.2081 67.0039C51.2081 67.5884 51.1161 68.1149 50.9273 68.569C50.7482 69.0086 50.4917 69.3902 50.1722 69.6945C49.8527 69.9988 49.4799 70.2259 49.0297 70.3853C48.5698 70.5495 48.047 70.6365 47.4709 70.6365C46.9045 70.6365 46.3866 70.5544 45.9267 70.3853C45.4716 70.2211 45.094 69.994 44.7745 69.6897C44.4502 69.3854 44.1985 69.0086 44.0193 68.569C43.8354 68.1149 43.7386 67.5884 43.7386 67.0039V57.9853H41.9668V67.0039C41.9668 67.7816 42.0975 68.4965 42.3589 69.1293C42.6252 69.7766 43.0076 70.3418 43.5014 70.8055C43.9951 71.2741 44.5954 71.6364 45.278 71.8827C45.946 72.1243 46.6867 72.2499 47.4806 72.2499C48.2794 72.2499 49.0248 72.1291 49.6929 71.8827C50.3803 71.6364 50.9757 71.2741 51.4647 70.8007C51.9488 70.337 52.3312 69.7766 52.5974 69.1245C52.8589 68.4917 52.9896 67.7768 52.9896 66.9991V57.9805H51.213V67.0039H51.2081Z" fill="white"></path> <path d="M74.9398 61.0231L76.1936 59.8831C73.0809 57.0572 68.0173 57.0572 64.9046 59.8831C63.3942 61.2501 62.5664 63.0712 62.5664 65.0034C62.5664 66.9357 63.399 68.7568 64.9046 70.1238C66.4585 71.5343 68.5062 72.2396 70.5491 72.2396C72.5919 72.2396 74.6397 71.5343 76.1936 70.1238L74.9398 68.9838C72.5193 71.1817 68.5788 71.1817 66.1584 68.9838C64.9869 67.9211 64.3382 66.5057 64.3382 64.9986C64.3382 63.4915 64.982 62.081 66.1584 61.0134C68.5788 58.8252 72.5145 58.8252 74.9398 61.0231Z" fill="white"></path> <path d="M90.1354 57.9902L84.5684 72.0278H86.4563L87.8989 68.3904H94.9812L96.4238 72.0278H98.3069L92.7398 57.9902H90.1354ZM88.5379 66.777L91.4425 59.4587L94.347 66.777H88.5379Z" fill="white"></path> <path d="M110.874 57.9844H109.097H104.387V59.5929H109.097V72.0219H110.874V59.5929H115.584V57.9844H110.874Z" fill="white"></path> <path d="M126.596 57.9902H124.824V72.0278H126.596V57.9902Z" fill="white"></path> <path d="M144.164 57.7637C139.851 57.7637 136.346 61.0146 136.346 65.0046C136.346 68.9995 139.855 72.2456 144.164 72.2456C148.477 72.2456 151.987 68.9946 151.987 65.0046C151.982 61.0146 148.477 57.7637 144.164 57.7637ZM144.164 70.6418C140.828 70.6418 138.117 68.1155 138.117 65.0095C138.117 61.9034 140.828 59.3771 144.164 59.3771C147.499 59.3771 150.21 61.9034 150.21 65.0095C150.21 68.1107 147.499 70.6418 144.164 70.6418Z" fill="white"></path> <path d="M171.05 65.8881C171.05 67.4098 171.253 69.5738 171.253 69.5738C171.253 69.5738 170.547 68.1005 169.032 65.9848L163.319 57.9902H161.727V72.0277H163.498V64.1298C163.498 62.6082 163.295 60.4442 163.295 60.4442C163.295 60.4442 164.007 61.9223 165.517 64.0381L171.229 72.0326H172.822V57.9951H171.05V65.8881Z" fill="white"></path> </svg> 