<?xml version="1.0" encoding="UTF-8"?> <svg xmlns="http://www.w3.org/2000/svg" width="270" height="62" viewBox="0 0 270 62" fill="none"> <path d="M147.922 25.1616H161.417L178.218 4.11719H164.722L147.922 25.1616Z" fill="#9C78FF"></path> <path d="M183.344 49.3467H195.769L234.387 0.972656H221.961L183.344 49.3467Z" fill="#9C78FF"></path> <path d="M256.319 25.1602L239.523 46.2046H253.019L269.819 25.1602H256.319Z" fill="#9C78FF"></path> <path d="M8.42202 10.6016H0V41.8844H8.42202V10.6016Z" fill="#9C78FF"></path> <path d="M41.1967 10.6602H32.7747V24.8191C32.814 24.8191 32.8227 25.0968 32.8052 25.6481C32.7834 26.1995 32.7747 26.8366 32.7747 27.5594L22.5801 10.6602H14.5859V41.8858H23.008V25.9013L25.0818 29.5565L32.6481 41.8858H41.1923V10.6602H41.1967Z" fill="#9C78FF"></path> <path d="M65.4813 24.8191C65.5205 24.8191 65.5336 25.0968 65.5118 25.6481C65.49 26.1995 65.4813 26.8366 65.4813 27.5594L55.291 10.6602H47.2969V41.8858H55.7189V25.9013L57.7927 29.5565L65.359 41.8858H73.9033V10.6602H65.4813V24.8191Z" fill="#9C78FF"></path> <path d="M103.383 12.8577C102.082 11.9633 100.598 11.2976 98.93 10.8607C97.2622 10.4237 95.5508 10.2031 93.8044 10.2031C92.0973 10.2031 90.4076 10.4237 88.7398 10.8607C87.072 11.2976 85.5963 11.9633 84.3127 12.8577C83.0335 13.7521 81.9943 14.8751 81.1997 16.2269C80.4051 17.5787 80.0078 19.1469 80.0078 20.9357V31.611C80.0078 33.3998 80.4051 34.9598 81.1997 36.2912C81.9943 37.6226 83.0422 38.7375 84.3433 39.6318C85.6443 40.5262 87.1288 41.1919 88.7966 41.6289C90.4644 42.0659 92.154 42.2864 93.8611 42.2864C95.6119 42.2864 97.3103 42.0659 98.9563 41.6289C100.602 41.1919 102.078 40.5262 103.383 39.6318C104.684 38.7375 105.732 37.6226 106.527 36.2912C107.322 34.9598 107.719 33.3998 107.719 31.611V20.9357C107.719 19.1469 107.322 17.5787 106.527 16.2269C105.732 14.8751 104.684 13.7521 103.383 12.8577ZM99.2313 31.611C99.2313 32.7137 98.6725 33.5509 97.5548 34.1226C96.4371 34.6944 95.2059 34.9803 93.8611 34.9803C93.2106 34.9803 92.5601 34.9149 91.9095 34.7801C91.259 34.6495 90.6696 34.4371 90.1413 34.1512C89.613 33.8654 89.1939 33.5142 88.8883 33.0935C88.5826 32.677 88.4298 32.1787 88.4298 31.611V20.9357C88.4298 20.3639 88.5826 19.8493 88.8883 19.396C89.1939 18.9386 89.5999 18.567 90.1107 18.2852C90.6172 17.9993 91.1891 17.7829 91.8222 17.6277C92.4509 17.4766 93.0927 17.399 93.7433 17.399C94.4331 17.399 95.1054 17.4644 95.756 17.5991C96.4065 17.7339 96.9959 17.9422 97.5242 18.228C98.0525 18.5139 98.4716 18.8855 98.7729 19.3429C99.0785 19.8003 99.2313 20.3313 99.2313 20.9398V31.611Z" fill="#9C78FF"></path> <path d="M136.34 14.0866C135.323 13.0574 134.052 12.2325 132.524 11.6035C131.001 10.9746 129.219 10.6602 127.185 10.6602H113.82V41.8858H122.242V32.7542H127.185C129.219 32.7542 131.001 32.4397 132.524 31.8108C134.048 31.1819 135.323 30.3447 136.34 29.2992C137.357 28.2537 138.117 27.0653 138.628 25.7298C139.134 24.3985 139.392 23.0467 139.392 21.6786C139.392 20.3064 139.139 18.9587 138.628 17.6233C138.121 16.2919 137.357 15.1116 136.34 14.0866ZM130.023 24.5332C129.389 25.3337 128.446 25.7339 127.185 25.7339H122.242V18.0276H127.185C128.446 18.0276 129.389 18.4278 130.023 19.2241C130.651 20.0246 130.97 20.9067 130.97 21.8787C130.97 22.8507 130.656 23.7328 130.023 24.5332Z" fill="#201C2D"></path> <path d="M169.539 27.7593C170.679 26.1054 171.251 23.8306 171.251 20.9392C171.207 19.1137 170.862 17.5414 170.212 16.2304C169.561 14.9154 168.688 13.8536 167.588 13.0327C166.492 12.2159 165.186 11.6156 163.684 11.2358C162.178 10.856 160.571 10.6641 158.864 10.6641H145.5V41.8897H154.044V32.8316L164.719 46.2064H178.214L165.867 30.7406C167.391 30.0831 168.622 29.0948 169.539 27.7593ZM158.982 18.0233C160.327 18.0233 161.322 18.3949 161.973 19.1341C162.623 19.8774 162.951 20.6942 162.951 21.5885C162.951 22.4829 162.623 23.2997 161.973 24.043C161.322 24.7863 160.327 25.1538 158.982 25.1538H154.04V18.0192H158.982V18.0233Z" fill="#201C2D"></path> <path d="M200.727 12.8577C199.426 11.9633 197.942 11.2976 196.274 10.8607C194.606 10.4237 192.895 10.2031 191.148 10.2031C189.441 10.2031 187.751 10.4237 186.084 10.8607C184.416 11.2976 182.94 11.9633 181.656 12.8577C180.377 13.7521 179.338 14.8751 178.543 16.2269C177.749 17.5787 177.352 19.1469 177.352 20.9357V31.611C177.352 33.3998 177.749 34.9598 178.543 36.2912C179.338 37.6226 180.386 38.7375 181.687 39.6318C182.988 40.5262 184.473 41.1919 186.14 41.6289C187.808 42.0659 189.498 42.2864 191.205 42.2864C192.956 42.2864 194.654 42.0659 196.3 41.6289C197.946 41.1919 199.422 40.5262 200.727 39.6318C202.028 38.7375 203.076 37.6226 203.871 36.2912C204.665 34.9598 205.063 33.3998 205.063 31.611V20.9357C205.063 19.1469 204.665 17.5787 203.871 16.2269C203.076 14.8751 202.028 13.7521 200.727 12.8577ZM196.579 31.611C196.579 32.7137 196.021 33.5509 194.903 34.1226C193.785 34.6944 192.554 34.9803 191.209 34.9803C190.559 34.9803 189.908 34.9149 189.258 34.7801C188.607 34.6495 188.018 34.4371 187.489 34.1512C186.961 33.8654 186.542 33.5142 186.236 33.0935C185.931 32.677 185.778 32.1787 185.778 31.611V20.9357C185.778 20.3639 185.931 19.8493 186.236 19.396C186.542 18.9386 186.948 18.567 187.459 18.2852C187.965 17.9993 188.537 17.7829 189.17 17.6277C189.799 17.4766 190.441 17.399 191.091 17.399C191.781 17.399 192.454 17.4644 193.104 17.5991C193.755 17.7339 194.344 17.9422 194.872 18.228C195.401 18.5139 195.82 18.8855 196.121 19.3429C196.427 19.8003 196.579 20.3313 196.579 20.9398V31.611Z" fill="#201C2D"></path> <path d="M223.708 30.3573H229.353V31.5008C229.353 32.7178 228.842 33.6326 227.829 34.2411C226.812 34.8496 225.694 35.1559 224.472 35.1559C223.249 35.1559 222.131 34.8496 221.114 34.2411C220.097 33.6326 219.59 32.7178 219.59 31.5008V20.7682C219.59 19.6247 220.066 18.7426 221.022 18.1137C221.979 17.4848 223.044 17.1703 224.227 17.1703C225.161 17.1703 226.07 17.3908 226.943 17.8278C227.816 18.2648 228.48 18.9591 228.925 19.9106L235.945 16.8273C235.378 15.5735 234.653 14.5239 233.78 13.6867C232.907 12.8495 231.951 12.1757 230.911 11.6611C229.872 11.1465 228.794 10.7749 227.676 10.5462C226.559 10.3175 225.45 10.2031 224.349 10.2031C222.721 10.2031 221.114 10.4237 219.529 10.8607C217.944 11.2976 216.53 11.9633 215.286 12.8577C214.046 13.7521 213.05 14.8547 212.295 16.1698C211.544 17.4807 211.164 19.0162 211.164 20.7642V31.4967C211.164 33.2854 211.54 34.8578 212.295 36.2055C213.046 37.5572 214.046 38.6803 215.286 39.5747C216.526 40.4691 217.94 41.1429 219.529 41.6003C221.114 42.0577 222.721 42.2864 224.349 42.2864C226.017 42.2864 227.646 42.0577 229.231 41.6003C230.815 41.1429 232.221 40.4691 233.439 39.5747C234.662 38.6803 235.635 37.5572 236.369 36.2055C237.102 34.8537 237.469 33.2854 237.469 31.4967V23.7332H229.025L223.708 30.3573Z" fill="#201C2D"></path> <path d="M253.011 4.11719H239.516L256.312 25.1616H269.811L253.011 4.11719Z" fill="#201C2D"></path> <path d="M0.253229 49.3635H0V61.2272H0.253229V61.2313H8.2954V59.8673H1.60232V55.9181H7.8326V54.5541H1.60232V50.7193H8.2954V49.3594H0.253229V49.3635Z" fill="#201C2D"></path> <path d="M26.9133 51.0256C26.3021 50.4947 25.5599 50.0781 24.6998 49.7882C23.8528 49.5023 22.8923 49.3594 21.8531 49.3594H17.1641V61.2272H21.8531C22.8966 61.2272 23.8528 61.0843 24.6998 60.7984C25.5555 60.5085 26.3021 60.096 26.909 59.5733C27.5202 59.0464 27.9961 58.4093 28.3148 57.6742C28.6292 56.9555 28.7907 56.155 28.7907 55.2933C28.7907 54.4439 28.6292 53.6475 28.3148 52.9247C27.9961 52.1977 27.5246 51.5565 26.9133 51.0256ZM26.8173 57.2005C26.5728 57.7518 26.2235 58.2297 25.7694 58.6176C25.3154 59.0056 24.7565 59.316 24.106 59.5324C23.4467 59.753 22.6871 59.8673 21.8444 59.8673H18.7576V50.7193H21.8444C22.6827 50.7193 23.4424 50.8296 24.106 51.0542C24.7565 51.2707 25.311 51.581 25.7651 51.9772C26.2191 52.3733 26.5728 52.8511 26.8129 53.4066C27.0618 53.9742 27.1884 54.6072 27.1884 55.2974C27.1928 55.9917 27.0661 56.6328 26.8173 57.2005Z" fill="#201C2D"></path> <path d="M45.8113 56.9843C45.8113 57.4784 45.7283 57.9235 45.558 58.3074C45.3965 58.6791 45.1651 59.0017 44.8769 59.259C44.5888 59.5163 44.2526 59.7082 43.8466 59.843C43.4318 59.9818 42.9603 60.0553 42.4407 60.0553C41.9299 60.0553 41.4627 59.9859 41.0479 59.843C40.6375 59.7041 40.297 59.5122 40.0088 59.2549C39.7163 58.9976 39.4893 58.6791 39.3277 58.3074C39.1618 57.9235 39.0745 57.4784 39.0745 56.9843V49.3596H37.4766V56.9843C37.4766 57.6418 37.5944 58.2462 37.8302 58.7812C38.0703 59.3284 38.4153 59.8062 38.8606 60.1983C39.3059 60.5944 39.8473 60.9007 40.4629 61.109C41.0654 61.3132 41.7334 61.4194 42.4494 61.4194C43.1698 61.4194 43.8422 61.3173 44.4447 61.109C45.0647 60.9007 45.6017 60.5944 46.0426 60.1942C46.4792 59.8021 46.8242 59.3284 47.0643 58.7771C47.3001 58.2421 47.4179 57.6377 47.4179 56.9802V49.3555H45.8156V56.9843H45.8113Z" fill="#201C2D"></path> <path d="M67.2064 51.9275L68.3372 50.9637C65.5298 48.5746 60.963 48.5746 58.1556 50.9637C56.7935 52.1194 56.0469 53.6591 56.0469 55.2927C56.0469 56.9262 56.7978 58.4659 58.1556 59.6216C59.5571 60.8141 61.404 61.4104 63.2464 61.4104C65.0889 61.4104 66.9357 60.8141 68.3372 59.6216L67.2064 58.6578C65.0234 60.516 61.4694 60.516 59.2864 58.6578C58.2299 57.7593 57.6448 56.5628 57.6448 55.2886C57.6448 54.0144 58.2255 52.8219 59.2864 51.9193C61.4694 50.0693 65.019 50.0693 67.2064 51.9275Z" fill="#201C2D"></path> <path d="M80.9115 49.3633L75.8906 61.2312H77.5934L78.8944 58.156H85.2819L86.583 61.2312H88.2813L83.2604 49.3633H80.9115ZM79.4707 56.7919L82.0903 50.6048L84.7099 56.7919H79.4707Z" fill="#201C2D"></path> <path d="M99.6161 49.3594H98.0137H93.7656V50.7193H98.0137V61.2272H99.6161V50.7193H103.864V49.3594H99.6161Z" fill="#201C2D"></path> <path d="M113.801 49.3633H112.203V61.2312H113.801V49.3633Z" fill="#201C2D"></path> <path d="M129.645 49.1719C125.755 49.1719 122.594 51.9203 122.594 55.2937C122.594 58.6711 125.759 61.4155 129.645 61.4155C133.535 61.4155 136.7 58.667 136.7 55.2937C136.696 51.9203 133.535 49.1719 129.645 49.1719ZM129.645 60.0596C126.637 60.0596 124.192 57.9237 124.192 55.2978C124.192 52.6718 126.637 50.5359 129.645 50.5359C132.653 50.5359 135.098 52.6718 135.098 55.2978C135.098 57.9196 132.653 60.0596 129.645 60.0596Z" fill="#201C2D"></path> <path d="M153.893 56.0405C153.893 57.3269 154.077 59.1565 154.077 59.1565C154.077 59.1565 153.439 57.9109 152.073 56.1222L146.921 49.3633H145.484V61.2312H147.082V54.554C147.082 53.2675 146.899 51.4379 146.899 51.4379C146.899 51.4379 147.541 52.6876 148.903 54.4764L154.055 61.2352H155.491V49.3674H153.893V56.0405Z" fill="#201C2D"></path> </svg> 